<svg width="16" height="18" viewBox="0 0 16 18" fill="none" xmlns="http://www.w3.org/2000/svg">
  <path d="M1 5H2M2 5H15M2 5L2 15.3C2 15.7509 2.17559 16.1833 2.48816 16.5021C2.80072 16.8209 3.22464 17 3.66667 17H12.3333C12.7754 17 13.1993 16.8209 13.5118 16.5021C13.8244 16.1833 14 15.7509 14 15.3V5H2ZM5 5L5 2.7C5 2.24913 5.1756 1.81673 5.48816 1.49792C5.80072 1.17911 6.22464 1 6.66667 1H9.33333C9.77536 1 10.1993 1.17911 10.5118 1.49792C10.8244 1.81673 11 2.24913 11 2.7V5M6 9V13M10 9V13" stroke="currentColor" stroke-width="2" stroke-linecap="round" stroke-linejoin="round" />
</svg>